<svg width="60" height="60" viewBox="0 0 60 60" fill="none" xmlns="http://www.w3.org/2000/svg">
<path d="M50.0397 0.178302C54.8381 1.04549 58.437 4.87557 59.1018 9.78963C59.4053 12.1166 58.8128 14.7904 57.5409 16.915C56.8327 18.0713 55.0694 19.8346 53.9131 20.5428C51.7885 21.8146 49.1147 22.4072 46.7878 22.1037C44.2006 21.7568 42.0905 20.7162 40.2839 18.8951C38.4339 17.0596 37.4077 14.9349 37.0753 12.3189C36.7862 9.96307 37.3643 7.39041 38.6362 5.2658C39.3444 4.12401 41.1077 2.34627 42.2495 1.65252C44.6198 0.221662 47.4237 -0.313104 50.0397 0.178302ZM45.9784 5.32362C43.8393 6.13299 42.3796 7.92518 42.0038 10.2088C41.5991 12.7525 43.0589 15.4986 45.4003 16.5971C49.2159 18.3748 53.494 16.1201 54.1733 11.9721C54.578 9.4283 53.1182 6.68221 50.7624 5.58377C49.1725 4.83221 47.5393 4.74549 45.9784 5.32362Z" fill="#EB2326"/>
<path d="M18.098 0.120474C25.0644 1.05993 30.7012 6.53766 31.8285 13.4607C32.0019 14.4724 32.0453 16.2068 32.0453 20.9474V27.1334H38.2168C45.0242 27.1334 46.0359 27.2201 48.2906 27.9861C56.2398 30.6888 60.7781 39.1439 58.6535 47.2377C56.3555 55.8951 47.3078 61.0404 38.7226 58.5545C32.7969 56.8345 28.4176 51.8916 27.348 45.7201C27.1746 44.7084 27.1312 43.1474 27.1312 38.2478V32.0474H20.9453C14.1523 32.0474 13.184 31.9607 10.9004 31.1947C3.25467 28.6076 -1.31251 20.6439 0.335142 12.7959C1.62147 6.63883 6.43436 1.73922 12.5336 0.38063C14.0078 0.0482083 16.6961 -0.0818698 18.098 0.120474ZM13.1695 5.30915C10.9726 5.87282 8.61678 7.43376 7.25819 9.22594C6.40546 10.3677 5.53827 12.1599 5.2203 13.4896C4.87342 14.9205 4.90233 17.3486 5.29256 18.7795C6.41991 23.0576 9.96092 26.2806 14.268 26.9744C14.8172 27.0611 17.7078 27.1334 21.1621 27.1334H27.1312V21.1642C27.1312 17.7099 27.059 14.8193 26.9723 14.2701C26.2062 9.50055 22.4051 5.7861 17.5199 5.03454C16.3637 4.84665 14.4992 4.97672 13.1695 5.30915ZM32.0453 38.0021C32.0453 41.4709 32.1176 44.3615 32.2043 44.9107C32.898 49.2177 36.1211 52.7588 40.3992 53.8861C41.8301 54.2763 44.2582 54.3052 45.6891 53.9584C51.1379 52.6431 54.8812 47.3244 54.1586 41.9045C53.8117 39.274 52.8 37.1927 50.9933 35.3716C49.3457 33.7095 47.1922 32.5677 45.0387 32.2064C44.6051 32.1341 41.5121 32.0763 38.1445 32.0619L32.0453 32.0474V38.0021Z" fill="#EB2326"/>
<path d="M13.0397 37.1783C17.8381 38.0455 21.437 41.8756 22.1018 46.7896C22.4053 49.1166 21.8128 51.7904 20.5409 53.915C19.8327 55.0713 18.0694 56.8346 16.9131 57.5428C14.7885 58.8146 12.1147 59.4072 9.78776 59.1037C7.20065 58.7568 5.09049 57.7162 3.28385 55.8951C1.43385 54.0596 0.407678 51.9349 0.0752564 49.3189C-0.213806 46.9631 0.364319 44.3904 1.63619 42.2658C2.3444 41.124 4.10768 39.3463 5.24947 38.6525C7.61979 37.2217 10.4237 36.6869 13.0397 37.1783ZM8.97838 42.3236C6.24674 43.3498 4.55572 46.1681 5.00377 48.9721C5.55299 52.3396 8.71823 54.6955 11.9702 54.1752C15.3378 53.626 17.6936 50.4607 17.1733 47.2088C16.653 43.9713 13.7768 41.6877 10.5827 41.9767C10.1057 42.0201 9.38307 42.1791 8.97838 42.3236Z" fill="#EB2326"/>
</svg>
