<svg width="218" height="60" viewBox="0 0 218 60" fill="none" xmlns="http://www.w3.org/2000/svg">
<path d="M74.0476 44V16.9455H80.5867V27.8043H91.2473V16.9455H97.7732V44H91.2473V33.128H80.5867V44H74.0476ZM101.875 44V23.7091H108.335V44H101.875ZM105.111 21.3445C104.204 21.3445 103.425 21.045 102.773 20.4462C102.122 19.8385 101.796 19.1075 101.796 18.2533C101.796 17.4078 102.122 16.6857 102.773 16.0868C103.425 15.4791 104.204 15.1753 105.111 15.1753C106.027 15.1753 106.807 15.4791 107.45 16.0868C108.101 16.6857 108.427 17.4078 108.427 18.2533C108.427 19.1075 108.101 19.8385 107.45 20.4462C106.807 21.045 106.027 21.3445 105.111 21.3445ZM125.538 35.2416V23.7091H131.984V44H125.828V40.2219H125.617C125.168 41.4636 124.402 42.45 123.318 43.181C122.244 43.9031 120.945 44.2642 119.421 44.2642C118.039 44.2642 116.823 43.9472 115.775 43.3131C114.727 42.679 113.913 41.7939 113.332 40.6578C112.75 39.5129 112.455 38.1743 112.446 36.6419V23.7091H118.906V35.3737C118.915 36.4746 119.206 37.342 119.778 37.9761C120.351 38.6102 121.13 38.9273 122.116 38.9273C122.759 38.9273 123.336 38.7864 123.847 38.5045C124.366 38.2139 124.776 37.7956 125.075 37.2496C125.384 36.6947 125.538 36.0254 125.538 35.2416ZM147.549 23.7091V28.4648H134.749V23.7091H147.549ZM137.43 18.8477H143.89V37.6195C143.89 38.0158 143.952 38.3372 144.075 38.5838C144.207 38.8216 144.396 38.9933 144.643 39.099C144.89 39.1959 145.185 39.2443 145.528 39.2443C145.775 39.2443 146.035 39.2223 146.308 39.1783C146.589 39.1254 146.801 39.0814 146.942 39.0462L147.919 43.7094C147.611 43.7974 147.175 43.9075 146.611 44.0396C146.057 44.1717 145.392 44.2554 144.617 44.2906C143.102 44.3611 141.803 44.1849 140.72 43.7622C139.645 43.3307 138.822 42.6614 138.249 41.7543C137.686 40.8472 137.413 39.7067 137.43 38.3328V18.8477ZM150.845 44V23.7091H157.305V44H150.845ZM154.082 21.3445C153.175 21.3445 152.395 21.045 151.744 20.4462C151.092 19.8385 150.766 19.1075 150.766 18.2533C150.766 17.4078 151.092 16.6857 151.744 16.0868C152.395 15.4791 153.175 15.1753 154.082 15.1753C154.998 15.1753 155.777 15.4791 156.42 16.0868C157.072 16.6857 157.398 17.4078 157.398 18.2533C157.398 19.1075 157.072 19.8385 156.42 20.4462C155.777 21.045 154.998 21.3445 154.082 21.3445ZM167.877 16.9455V44H161.417V16.9455H167.877ZM171.988 44V23.7091H178.448V44H171.988ZM175.225 21.3445C174.318 21.3445 173.538 21.045 172.887 20.4462C172.235 19.8385 171.909 19.1075 171.909 18.2533C171.909 17.4078 172.235 16.6857 172.887 16.0868C173.538 15.4791 174.318 15.1753 175.225 15.1753C176.141 15.1753 176.92 15.4791 177.563 16.0868C178.215 16.6857 178.541 17.4078 178.541 18.2533C178.541 19.1075 178.215 19.8385 177.563 20.4462C176.92 21.045 176.141 21.3445 175.225 21.3445ZM194.013 23.7091V28.4648H181.212V23.7091H194.013ZM183.894 18.8477H190.354V37.6195C190.354 38.0158 190.415 38.3372 190.539 38.5838C190.671 38.8216 190.86 38.9933 191.107 39.099C191.353 39.1959 191.648 39.2443 191.992 39.2443C192.238 39.2443 192.498 39.2223 192.771 39.1783C193.053 39.1254 193.264 39.0814 193.405 39.0462L194.383 43.7094C194.075 43.7974 193.639 43.9075 193.075 44.0396C192.52 44.1717 191.855 44.2554 191.08 44.2906C189.566 44.3611 188.267 44.1849 187.183 43.7622C186.109 43.3307 185.285 42.6614 184.713 41.7543C184.149 40.8472 183.876 39.7067 183.894 38.3328V18.8477ZM201.259 51.6091C200.484 51.6091 199.753 51.5474 199.066 51.4241C198.379 51.3097 197.789 51.1555 197.296 50.9618L198.722 46.2722C199.357 46.4835 199.929 46.6068 200.44 46.642C200.959 46.6773 201.404 46.5936 201.774 46.3911C202.153 46.1973 202.443 45.8494 202.646 45.3474L202.897 44.7398L195.684 23.7091H202.448L206.186 38.1875H206.398L210.189 23.7091H216.992L209.343 45.9419C208.974 47.0516 208.45 48.0291 207.771 48.8746C207.102 49.7288 206.235 50.3982 205.169 50.8825C204.112 51.3669 202.809 51.6091 201.259 51.6091Z" fill="#EB2326"/>
<path d="M50.0397 0.178303C54.8381 1.04549 58.437 4.87557 59.1018 9.78963C59.4053 12.1166 58.8127 14.7904 57.5409 16.915C56.8327 18.0713 55.0694 19.8346 53.9131 20.5428C51.7885 21.8146 49.1147 22.4072 46.7877 22.1037C44.2006 21.7568 42.0905 20.7162 40.2838 18.8951C38.4338 17.0596 37.4077 14.9349 37.0752 12.3189C36.7862 9.96307 37.3643 7.39041 38.6362 5.2658C39.3444 4.12401 41.1077 2.34627 42.2495 1.65252C44.6198 0.221663 47.4237 -0.313105 50.0397 0.178303ZM45.9784 5.32362C43.8393 6.13299 42.3795 7.92518 42.0038 10.2088C41.5991 12.7525 43.0588 15.4986 45.4002 16.5971C49.2159 18.3748 53.494 16.1201 54.1733 11.9721C54.578 9.4283 53.1182 6.68221 50.7624 5.58377C49.1725 4.83221 47.5393 4.74549 45.9784 5.32362Z" fill="#EB2326"/>
<path d="M18.098 0.120476C25.0644 1.05993 30.7012 6.53766 31.8285 13.4607C32.0019 14.4724 32.0453 16.2068 32.0453 20.9474V27.1334H38.2168C45.0242 27.1334 46.0359 27.2201 48.2906 27.9861C56.2398 30.6888 60.7781 39.1439 58.6535 47.2377C56.3555 55.8951 47.3078 61.0404 38.7226 58.5545C32.7969 56.8345 28.4176 51.8916 27.348 45.7201C27.1746 44.7084 27.1312 43.1474 27.1312 38.2478V32.0474H20.9453C14.1523 32.0474 13.184 31.9607 10.9004 31.1947C3.25467 28.6076 -1.31252 20.6439 0.33514 12.7959C1.62147 6.63883 6.43436 1.73922 12.5336 0.38063C14.0078 0.0482101 16.6961 -0.081871 18.098 0.120476ZM13.1695 5.30915C10.9726 5.87282 8.61678 7.43375 7.25819 9.22594C6.40546 10.3677 5.53827 12.1599 5.2203 13.4896C4.87342 14.9205 4.90233 17.3486 5.29256 18.7795C6.41991 23.0576 9.96092 26.2806 14.268 26.9744C14.8172 27.0611 17.7078 27.1334 21.1621 27.1334H27.1312V21.1642C27.1312 17.7099 27.059 14.8193 26.9723 14.2701C26.2062 9.50055 22.4051 5.7861 17.5199 5.03454C16.3637 4.84665 14.4992 4.97672 13.1695 5.30915ZM32.0453 38.0021C32.0453 41.4709 32.1176 44.3615 32.2043 44.9107C32.898 49.2177 36.1211 52.7588 40.3992 53.8861C41.8301 54.2763 44.2582 54.3052 45.6891 53.9584C51.1379 52.6431 54.8812 47.3244 54.1586 41.9045C53.8117 39.274 52.8 37.1927 50.9933 35.3716C49.3457 33.7095 47.1922 32.5677 45.0387 32.2064C44.6051 32.1341 41.5121 32.0763 38.1445 32.0619L32.0453 32.0474V38.0021Z" fill="#EB2326"/>
<path d="M13.0397 37.1783C17.8381 38.0455 21.437 41.8756 22.1018 46.7896C22.4053 49.1166 21.8127 51.7904 20.5409 53.915C19.8327 55.0713 18.0694 56.8346 16.9131 57.5428C14.7885 58.8146 12.1147 59.4072 9.78774 59.1037C7.20063 58.7568 5.09048 57.7162 3.28383 55.8951C1.43383 54.0596 0.407663 51.9349 0.0752411 49.3189C-0.213821 46.9631 0.364304 44.3904 1.63618 42.2658C2.34438 41.124 4.10766 39.3463 5.24946 38.6525C7.61977 37.2217 10.4237 36.6869 13.0397 37.1783ZM8.97837 42.3236C6.24673 43.3498 4.55571 46.1681 5.00376 48.9721C5.55297 52.3396 8.71821 54.6955 11.9702 54.1752C15.3377 53.626 17.6936 50.4607 17.1733 47.2088C16.653 43.9713 13.7768 41.6877 10.5827 41.9767C10.1057 42.0201 9.38305 42.1791 8.97837 42.3236Z" fill="#EB2326"/>
</svg>
